<svg version="1.1" viewBox="0.0 0.0 868.8687664041995 632.4435695538058" fill="none" stroke="none" stroke-linecap="square" stroke-miterlimit="10" xmlns:xlink="http://www.w3.org/1999/xlink" xmlns="http://www.w3.org/2000/svg"><clipPath id="p.0"><path d="m0 0l868.8688 0l0 632.44354l-868.8688 0l0 -632.44354z" clip-rule="nonzero"/></clipPath><g clip-path="url(#p.0)"><path fill="#000000" fill-opacity="0.0" d="m0 0l868.8688 0l0 632.44354l-868.8688 0z" fill-rule="evenodd"/><path fill="#cfe2f3" d="m410.0 40.364895l381.82935 0l0 139.08917l-381.82935 0z" fill-rule="evenodd"/><path fill="#a5b4c2" d="m791.82935 40.364895l13.635193 -13.635237l0 139.08917l-13.635193 13.635239z" fill-rule="evenodd"/><path fill="#d8e7f5" d="m410.0 40.364895l13.635223 -13.635237l381.8293 0l-13.635193 13.635237z" fill-rule="evenodd"/><path fill="#000000" fill-opacity="0.0" d="m410.0 40.364895l13.635223 -13.635237l381.8293 0l0 139.08917l-13.635193 13.635239l-381.82935 0zm0 0l381.82935 0l13.635193 -13.635237m-13.635193 13.635237l0 139.08917" fill-rule="evenodd"/><path stroke="#4a86e8" stroke-width="1.0" stroke-linejoin="round" stroke-linecap="butt" d="m410.0 40.364895l13.635223 -13.635237l381.8293 0l0 139.08917l-13.635193 13.635239l-381.82935 0zm0 0l381.82935 0l13.635193 -13.635237m-13.635193 13.635237l0 139.08917" fill-rule="evenodd"/><path fill="#cfe2f3" d="m410.0 96.13823l320.79614 0l0 89.67804l-320.79614 0z" fill-rule="evenodd"/><path fill="#a5b4c2" d="m730.79614 96.13823l28.873169 -28.873138l0 89.67804l-28.873169 28.873138z" fill-rule="evenodd"/><path fill="#d8e7f5" d="m410.0 96.13823l28.873138 -28.873138l320.79617 0l-28.873169 28.873138z" fill-rule="evenodd"/><path fill="#000000" fill-opacity="0.0" d="m410.0 96.13823l28.873138 -28.873138l320.79617 0l0 89.67804l-28.873169 28.873138l-320.79614 0zm0 0l320.79614 0l28.873169 -28.873138m-28.873169 28.873138l0 89.67804" fill-rule="evenodd"/><path stroke="#4a86e8" stroke-width="1.0" stroke-linejoin="round" stroke-linecap="butt" d="m410.0 96.13823l28.873138 -28.873138l320.79617 0l0 89.67804l-28.873169 28.873138l-320.79614 0zm0 0l320.79614 0l28.873169 -28.873138m-28.873169 28.873138l0 89.67804" fill-rule="evenodd"/><path fill="#cfe2f3" d="m410.0 141.26529l269.2544 0l0 55.45912l-269.2544 0z" fill-rule="evenodd"/><path fill="#a5b4c2" d="m679.2544 141.26529l25.296814 -25.296783l0 55.45912l-25.296814 25.296783z" fill-rule="evenodd"/><path fill="#d8e7f5" d="m410.0 141.26529l25.296783 -25.296783l269.25443 0l-25.296814 25.296783z" fill-rule="evenodd"/><path fill="#000000" fill-opacity="0.0" d="m410.0 141.26529l25.296783 -25.296783l269.25443 0l0 55.45912l-25.296814 25.296783l-269.2544 0zm0 0l269.2544 0l25.296814 -25.296783m-25.296814 25.296783l0 55.45912" fill-rule="evenodd"/><path stroke="#4a86e8" stroke-width="1.0" stroke-linejoin="round" stroke-linecap="butt" d="m410.0 141.26529l25.296783 -25.296783l269.25443 0l0 55.45912l-25.296814 25.296783l-269.2544 0zm0 0l269.2544 0l25.296814 -25.296783m-25.296814 25.296783l0 55.45912" fill-rule="evenodd"/><path fill="#cfe2f3" d="m387.54593 199.45674l203.16006 0l0 41.459274l-203.16006 0z" fill-rule="evenodd"/><path fill="#a5b4c2" d="m590.706 199.45674l39.29663 -39.29663l0 41.459274l-39.29663 39.29663z" fill-rule="evenodd"/><path fill="#d8e7f5" d="m387.54593 199.45674l39.29663 -39.29663l203.16006 0l-39.29663 39.29663z" fill-rule="evenodd"/><path fill="#000000" fill-opacity="0.0" d="m387.54593 199.45674l39.29663 -39.29663l203.16006 0l0 41.459274l-39.29663 39.29663l-203.16006 0zm0 0l203.16006 0l39.29663 -39.29663m-39.29663 39.29663l0 41.459274" fill-rule="evenodd"/><path stroke="#4a86e8" stroke-width="1.0" stroke-linejoin="round" stroke-linecap="butt" d="m387.54593 199.45674l39.29663 -39.29663l203.16006 0l0 41.459274l-39.29663 39.29663l-203.16006 0zm0 0l203.16006 0l39.29663 -39.29663m-39.29663 39.29663l0 41.459274" fill-rule="evenodd"/><path fill="#cfe2f3" d="m360.54855 267.63498l134.36765 0l0 25.64325l-134.36765 0z" fill-rule="evenodd"/><path fill="#a5b4c2" d="m494.9162 267.63498l55.11267 -55.11267l0 25.643234l-55.11267 55.112686z" fill-rule="evenodd"/><path fill="#d8e7f5" d="m360.54855 267.63498l55.11267 -55.11267l134.36765 0l-55.11267 55.11267z" fill-rule="evenodd"/><path fill="#000000" fill-opacity="0.0" d="m360.54855 267.63498l55.11267 -55.11267l134.36765 0l0 25.643234l-55.11267 55.112686l-134.36765 0zm0 0l134.36765 0l55.11267 -55.11267m-55.11267 55.11267l0 25.64325" fill-rule="evenodd"/><path stroke="#4a86e8" stroke-width="1.0" stroke-linejoin="round" stroke-linecap="butt" d="m360.54855 267.63498l55.11267 -55.11267l134.36765 0l0 25.643234l-55.11267 55.112686l-134.36765 0zm0 0l134.36765 0l55.11267 -55.11267m-55.11267 55.11267l0 25.64325" fill-rule="evenodd"/><path fill="#cfe2f3" d="m328.33597 338.5379l66.204865 0l0 16.189117l-66.204865 0z" fill-rule="evenodd"/><path fill="#a5b4c2" d="m394.54083 338.5379l64.56677 -64.56677l0 16.189148l-64.56677 64.56674z" fill-rule="evenodd"/><path fill="#d8e7f5" d="m328.33597 338.5379l64.56677 -64.56677l66.204865 0l-64.56677 64.56677z" fill-rule="evenodd"/><path fill="#000000" fill-opacity="0.0" d="m328.33597 338.5379l64.56677 -64.56677l66.204865 0l0 16.189148l-64.56677 64.56674l-66.204865 0zm0 0l66.204865 0l64.56677 -64.56677m-64.56677 64.56677l0 16.189117" fill-rule="evenodd"/><path stroke="#4a86e8" stroke-width="1.0" stroke-linejoin="round" stroke-linecap="butt" d="m328.33597 338.5379l64.56677 -64.56677l66.204865 0l0 16.189148l-64.56677 64.56674l-66.204865 0zm0 0l66.204865 0l64.56677 -64.56677m-64.56677 64.56677l0 16.189117" fill-rule="evenodd"/><path fill="#cfe2f3" d="m280.13647 421.2733l8.569244 0l0 3.0889282l-8.569244 0z" fill-rule="evenodd"/><path fill="#a5b4c2" d="m288.70572 421.2733l77.66699 -77.66699l0 3.0889282l-77.66699 77.66699z" fill-rule="evenodd"/><path fill="#d8e7f5" d="m280.13647 421.2733l77.66699 -77.66699l8.569244 0l-77.66699 77.66699z" fill-rule="evenodd"/><path fill="#000000" fill-opacity="0.0" d="m280.13647 421.2733l77.66699 -77.66699l8.569244 0l0 3.0889282l-77.66699 77.66699l-8.569244 0zm0 0l8.569244 0l77.66699 -77.66699m-77.66699 77.66699l0 3.0889282" fill-rule="evenodd"/><path stroke="#4a86e8" stroke-width="1.0" stroke-linejoin="round" stroke-linecap="butt" d="m280.13647 421.2733l77.66699 -77.66699l8.569244 0l0 3.0889282l-77.66699 77.66699l-8.569244 0zm0 0l8.569244 0l77.66699 -77.66699m-77.66699 77.66699l0 3.0889282" fill-rule="evenodd"/><path fill="#9fc5e8" d="m347.85428 380.03784l26.213898 22.07959l0 0c13.317902 11.217468 15.025696 31.111542 3.8144531 44.434692l-24.446869 29.052002l4.790039 4.0345764l-22.837341 4.3197937l0.36236572 -23.250122l4.790039 4.0345764l24.446869 -29.052002l0 0c5.2161255 -6.1987 4.42157 -15.454559 -1.7746887 -20.673553l-26.213898 -22.07959z" fill-rule="evenodd"/><path stroke="#6fa8dc" stroke-width="1.0" stroke-linejoin="round" stroke-linecap="butt" d="m347.85428 380.03784l26.213898 22.07959l0 0c13.317902 11.217468 15.025696 31.111542 3.8144531 44.434692l-24.446869 29.052002l4.790039 4.0345764l-22.837341 4.3197937l0.36236572 -23.250122l4.790039 4.0345764l24.446869 -29.052002l0 0c5.2161255 -6.1987 4.42157 -15.454559 -1.7746887 -20.673553l-26.213898 -22.07959z" fill-rule="evenodd"/><path fill="#cfe2f3" d="m160.58253 516.7726l6.058182 6.0581665l-2.1841583 2.184204l-6.058182 -6.0582275z" fill-rule="evenodd"/><path fill="#a5b4c2" d="m166.64072 522.83075l109.836395 0l-2.1841736 2.184204l-109.83638 0z" fill-rule="evenodd"/><path fill="#d8e7f5" d="m160.58253 516.7726l109.83641 0l6.0581665 6.0581665l-109.836395 0z" fill-rule="evenodd"/><path fill="#000000" fill-opacity="0.0" d="m160.58253 516.7726l109.83641 0l6.0581665 6.0581665l-2.1841736 2.184204l-109.83638 0l-6.058182 -6.0582275zm0 0l6.058182 6.0581665l109.836395 0m-109.836395 0l-2.1841583 2.184204" fill-rule="evenodd"/><path stroke="#4a86e8" stroke-width="1.0" stroke-linejoin="round" stroke-linecap="butt" d="m160.58253 516.7726l109.83641 0l6.0581665 6.0581665l-2.1841736 2.184204l-109.83638 0l-6.058182 -6.0582275zm0 0l6.058182 6.0581665l109.836395 0m-109.836395 0l-2.1841583 2.184204" fill-rule="evenodd"/><path fill="#cfe2f3" d="m76.54077 558.4881l4.598503 4.5985107l-2.8032227 2.8032227l-4.598503 -4.5985107z" fill-rule="evenodd"/><path fill="#a5b4c2" d="m81.139275 563.0866l279.99985 0l-2.8032227 2.8032227l-279.99985 0z" fill-rule="evenodd"/><path fill="#d8e7f5" d="m76.54077 558.4881l279.99985 0l4.5985107 4.5985107l-279.99985 0z" fill-rule="evenodd"/><path fill="#000000" fill-opacity="0.0" d="m76.54077 558.4881l279.99985 0l4.5985107 4.5985107l-2.8032227 2.8032227l-279.99985 0l-4.598503 -4.5985107zm0 0l4.598503 4.5985107l279.99985 0m-279.99985 0l-2.8032227 2.8032227" fill-rule="evenodd"/><path stroke="#4a86e8" stroke-width="1.0" stroke-linejoin="round" stroke-linecap="butt" d="m76.54077 558.4881l279.99985 0l4.5985107 4.5985107l-2.8032227 2.8032227l-279.99985 0l-4.598503 -4.5985107zm0 0l4.598503 4.5985107l279.99985 0m-279.99985 0l-2.8032227 2.8032227" fill-rule="evenodd"/><path fill="#cfe2f3" d="m160.24936 606.74347l5.448242 5.448242l-1.8576813 1.857666l-5.448242 -5.448242z" fill-rule="evenodd"/><path fill="#a5b4c2" d="m165.6976 612.1917l93.41849 0l-1.8576965 1.857666l-93.41847 0z" fill-rule="evenodd"/><path fill="#d8e7f5" d="m160.24936 606.74347l93.4185 0l5.448227 5.448242l-93.41849 0z" fill-rule="evenodd"/><path fill="#000000" fill-opacity="0.0" d="m160.24936 606.74347l93.4185 0l5.448227 5.448242l-1.8576965 1.857666l-93.41847 0l-5.448242 -5.448242zm0 0l5.448242 5.448242l93.41849 0m-93.41849 0l-1.8576813 1.857666" fill-rule="evenodd"/><path stroke="#4a86e8" stroke-width="1.0" stroke-linejoin="round" stroke-linecap="butt" d="m160.24936 606.74347l93.4185 0l5.448227 5.448242l-1.8576965 1.857666l-93.41847 0l-5.448242 -5.448242zm0 0l5.448242 5.448242l93.41849 0m-93.41849 0l-1.8576813 1.857666" fill-rule="evenodd"/><path fill="#000000" fill-opacity="0.0" d="m366.37366 480.19827l39.496063 -59.968506l31.055115 20.440948l-39.496063 59.968506z" fill-rule="evenodd"/><path fill="#000000" d="m391.26434 484.36667l-8.757538 -5.7643433l3.893219 -5.9112244l1.0310669 0.6786499l-3.1283264 4.749878l2.7146912 1.7868652l2.7072144 -4.1104736l1.0310669 0.6786804l-2.7072144 4.110443l3.980713 2.6201782l-0.7648926 1.1613464zm4.778137 -7.2548523l-8.757538 -5.7643433l0.70474243 -1.0700378l8.757538 5.7643433l-0.70474243 1.0700378zm3.7495117 -7.397461q0.11364746 0.93530273 -0.038482666 1.6208191q-0.15213013 0.68551636 -0.5732422 1.3249207q-0.68756104 1.0439148 -1.5661316 1.269989q-0.87854004 0.22607422 -1.6746826 -0.29794312q-0.46984863 -0.30926514 -0.71084595 -0.7671814q-0.25402832 -0.46652222 -0.26550293 -0.9604187q-0.00289917 -0.506958 0.16326904 -1.0148926q0.1279602 -0.36471558 0.47076416 -1.0556641q0.7028198 -1.40802 0.8848572 -2.1673584q-0.21328735 -0.15908813 -0.2654724 -0.19345093q-0.6656189 -0.43811035 -1.1329346 -0.29675293q-0.63186646 0.16397095 -1.1647034 0.97302246q-0.50704956 0.76989746 -0.4736328 1.3156738q0.0289917 0.5241394 0.58288574 1.131897l-0.83969116 0.9624939q-0.57110596 -0.58166504 -0.77389526 -1.1828003q-0.2027893 -0.60113525 -0.0121154785 -1.3735352q0.19064331 -0.7723999 0.7234802 -1.5814514q0.5414429 -0.8220825 1.0723877 -1.2021179q0.5179138 -0.38867188 0.9597473 -0.4345398q0.4418335 -0.045898438 0.9543152 0.14178467q0.30847168 0.12820435 1.0263062 0.600708l1.435669 0.9449768q1.5009155 0.98791504 1.9484863 1.1889954q0.43450928 0.19247437 0.93743896 0.22421265l-0.7391052 1.1222229q-0.4510498 -0.053710938 -0.9291687 -0.29360962zm-2.4616394 -1.4893188q-0.15182495 0.7418213 -0.7470398 2.014862q-0.34695435 0.725647 -0.39691162 1.0856018q-0.0630188 0.35134888 0.0687561 0.66256714q0.12734985 0.2895813 0.40142822 0.4699707q0.43069458 0.2835083 0.9326782 0.14627075q0.50201416 -0.13723755 0.91452026 -0.76361084q0.40393066 -0.61328125 0.46090698 -1.2679138q0.052490234 -0.67626953 -0.27124023 -1.207367q-0.25372314 -0.41018677 -0.9715576 -0.8826599l-0.39154053 -0.25772095zm5.5848694 -3.6505432l1.0559082 0.47052002q-0.20944214 0.5168762 -0.45007324 0.88223267q-0.37817383 0.5741577 -0.7757263 0.78012085q-0.397583 0.20596313 -0.7837219 0.13885498q-0.3861084 -0.06707764 -1.3519287 -0.7027893l-3.654419 -2.4053955l-0.5242615 0.79599l-0.83529663 -0.5498047l0.5242615 -0.79599l-1.5792236 -1.0394592l0.065216064 -1.4909668l2.21875 1.4603882l0.7133179 -1.0830688l0.83529663 0.5498047l-0.7133179 1.0830688l3.706604 2.4397583q0.45681763 0.3006897 0.6347656 0.34298706q0.17346191 0.0206604 0.32913208 -0.04525757q0.1512146 -0.087524414 0.31448364 -0.33544922q0.11172485 -0.16964722 0.27023315 -0.49554443zm2.239746 -3.4006653l1.0558777 0.47052002q-0.20944214 0.5168457 -0.45007324 0.88223267q-0.3781433 0.5741577 -0.7757263 0.78012085q-0.397583 0.20593262 -0.7836914 0.13885498q-0.38613892 -0.067108154 -1.3519592 -0.7028198l-3.6543884 -2.405365l-0.5242615 0.79599l-0.83529663 -0.5498047l0.5242615 -0.79599l-1.5792236 -1.0394897l0.06518555 -1.4909668l2.21875 1.4604187l0.7133484 -1.0830688l0.83529663 0.5498047l-0.7133484 1.0830688l3.7066345 2.4397583q0.4567871 0.30065918 0.6347351 0.34295654q0.17349243 0.0206604 0.32913208 -0.04522705q0.1512146 -0.087524414 0.31451416 -0.33547974q0.11172485 -0.1696167 0.27023315 -0.49551392zm2.4713745 -6.1102295l0.8740845 -1.014679q0.8069763 0.90530396 0.8694153 1.9752197q0.071014404 1.0568542 -0.6595154 2.1660461q-0.9195862 1.3962402 -2.3093567 1.6599426q-1.3942566 0.24206543 -2.9473877 -0.7802429q-1.6053162 -1.0566406 -1.938324 -2.4543152q-0.33746338 -1.4193115 0.5305481 -2.7372742q0.8336487 -1.2657471 2.2279053 -1.5078125q1.3942261 -0.24206543 2.9734497 0.7974243q0.09136963 0.06011963 0.27856445 0.20202637l-3.111145 4.7237854q1.0784912 0.6350403 1.9920654 0.4694214q0.9005432 -0.17419434 1.4247742 -0.9701843q0.38674927 -0.58721924 0.36157227 -1.2023621q-0.038208008 -0.6237488 -0.5666504 -1.3269958zm-4.0648804 2.3937378l2.3376465 -3.549347q-0.8477173 -0.44573975 -1.4671631 -0.38580322q-0.97024536 0.10958862 -1.5116882 0.93170166q-0.48129272 0.7307434 -0.3204956 1.5661011q0.1607666 0.83535767 0.96170044 1.4373474zm7.7354736 -3.5069885l-6.3430176 -4.175049l0.6359863 -0.9656372l0.9005432 0.5927429q-0.5800171 -1.3919067 0.28799438 -2.7098389q0.3781433 -0.5741577 0.90496826 -0.91952515q0.5137634 -0.3539734 1.007782 -0.36550903q0.49404907 -0.011505127 1.0195923 0.18478394q0.3345642 0.14538574 1.0784912 0.6350403l3.9024048 2.5686035l-0.70474243 1.0700378l-3.8632202 -2.5428467q-0.6525879 -0.4295349 -1.0648193 -0.51379395q-0.41223145 -0.08428955 -0.82284546 0.11306763q-0.40203857 0.18432617 -0.6856384 0.6149597q-0.44692993 0.67855835 -0.3383484 1.4795532q0.10412598 0.7793579 1.3179016 1.5782776l3.4716797 2.2851257l-0.7047119 1.0700073z" fill-rule="nonzero"/><path fill="#000000" fill-opacity="0.0" d="m387.54593 543.6063l71.811035 0l0 37.165344l-71.811035 0z" fill-rule="evenodd"/><path fill="#000000" d="m397.67093 566.6863l0 -10.484375l3.625 0q1.21875 0 1.859375 0.140625q0.90625 0.203125 1.546875 0.75q0.828125 0.703125 1.234375 1.796875q0.40625 1.09375 0.40625 2.5q0 1.1875 -0.28125 2.109375q-0.265625 0.921875 -0.703125 1.53125q-0.4375 0.609375 -0.96875 0.953125q-0.515625 0.34375 -1.25 0.53125q-0.71875 0.171875 -1.671875 0.171875l-3.796875 0zm1.390625 -1.234375l2.25 0q1.03125 0 1.625 -0.1875q0.59375 -0.203125 0.9375 -0.546875q0.5 -0.5 0.765625 -1.328125q0.28125 -0.84375 0.28125 -2.03125q0 -1.640625 -0.546875 -2.515625q-0.53125 -0.890625 -1.3125 -1.1875q-0.546875 -0.21875 -1.796875 -0.21875l-2.203125 0l0 8.015625zm14.24054 -1.21875l1.328125 0.171875q-0.3125 1.171875 -1.171875 1.8125q-0.84375 0.640625 -2.171875 0.640625q-1.671875 0 -2.65625 -1.015625q-0.96875 -1.03125 -0.96875 -2.890625q0 -1.921875 0.984375 -2.96875q1.0 -1.0625 2.578125 -1.0625q1.515625 0 2.484375 1.03125q0.96875 1.03125 0.96875 2.921875q0 0.109375 -0.015625 0.34375l-5.65625 0q0.0625 1.25 0.703125 1.921875q0.640625 0.65625 1.59375 0.65625q0.703125 0 1.203125 -0.359375q0.5 -0.375 0.796875 -1.203125zm-4.234375 -2.078125l4.25 0q-0.09375 -0.953125 -0.484375 -1.4375q-0.625 -0.75 -1.609375 -0.75q-0.875 0 -1.484375 0.59375q-0.609375 0.59375 -0.671875 1.59375zm7.1823425 4.53125l0 -7.59375l1.15625 0l0 1.078125q0.84375 -1.25 2.421875 -1.25q0.6875 0 1.265625 0.25q0.578125 0.234375 0.859375 0.640625q0.28125 0.40625 0.40625 0.953125q0.0625 0.359375 0.0625 1.25l0 4.671875l-1.28125 0l0 -4.625q0 -0.78125 -0.15625 -1.171875q-0.15625 -0.390625 -0.546875 -0.625q-0.375 -0.234375 -0.890625 -0.234375q-0.8125 0 -1.421875 0.53125q-0.59375 0.515625 -0.59375 1.96875l0 4.15625l-1.28125 0zm7.635498 -2.265625l1.265625 -0.203125q0.109375 0.765625 0.59375 1.171875q0.5 0.40625 1.375 0.40625q0.890625 0 1.3125 -0.359375q0.4375 -0.359375 0.4375 -0.84375q0 -0.4375 -0.375 -0.6875q-0.265625 -0.171875 -1.3125 -0.4375q-1.421875 -0.359375 -1.96875 -0.609375q-0.546875 -0.265625 -0.828125 -0.734375q-0.28125 -0.46875 -0.28125 -1.015625q0 -0.515625 0.21875 -0.9375q0.234375 -0.4375 0.640625 -0.734375q0.296875 -0.21875 0.8125 -0.359375q0.53125 -0.15625 1.125 -0.15625q0.890625 0 1.5625 0.265625q0.671875 0.25 1.0 0.6875q0.328125 0.4375 0.4375 1.171875l-1.25 0.171875q-0.09375 -0.578125 -0.5 -0.90625q-0.40625 -0.34375 -1.15625 -0.34375q-0.890625 0 -1.28125 0.296875q-0.375 0.296875 -0.375 0.6875q0 0.25 0.15625 0.453125q0.15625 0.203125 0.5 0.34375q0.1875 0.078125 1.140625 0.328125q1.359375 0.359375 1.890625 0.59375q0.546875 0.234375 0.859375 0.6875q0.3125 0.4375 0.3125 1.09375q0 0.640625 -0.375 1.21875q-0.375 0.5625 -1.09375 0.875q-0.703125 0.3125 -1.59375 0.3125q-1.484375 0 -2.265625 -0.609375q-0.765625 -0.625 -0.984375 -1.828125zm13.046875 -0.1875l1.328125 0.171875q-0.3125 1.171875 -1.171875 1.8125q-0.84375 0.640625 -2.171875 0.640625q-1.671875 0 -2.65625 -1.015625q-0.96875 -1.03125 -0.96875 -2.890625q0 -1.921875 0.984375 -2.96875q1.0 -1.0625 2.578125 -1.0625q1.515625 0 2.484375 1.03125q0.96875 1.03125 0.96875 2.921875q0 0.109375 -0.015625 0.34375l-5.65625 0q0.0625 1.25 0.703125 1.921875q0.640625 0.65625 1.59375 0.65625q0.703125 0 1.203125 -0.359375q0.5 -0.375 0.796875 -1.203125zm-4.234375 -2.078125l4.25 0q-0.09375 -0.953125 -0.484375 -1.4375q-0.625 -0.75 -1.609375 -0.75q-0.875 0 -1.484375 0.59375q-0.609375 0.59375 -0.671875 1.59375z" fill-rule="nonzero"/><path fill="#000000" fill-opacity="0.0" d="m277.83728 591.81366l90.834625 0l0 37.165344l-90.834625 0z" fill-rule="evenodd"/><path fill="#000000" d="m287.49353 611.5187l1.3125 -0.109375q0.09375 0.78125 0.421875 1.296875q0.34375 0.5 1.0625 0.8125q0.71875 0.3125 1.609375 0.3125q0.796875 0 1.40625 -0.234375q0.609375 -0.234375 0.90625 -0.640625q0.296875 -0.421875 0.296875 -0.90625q0 -0.5 -0.296875 -0.859375q-0.28125 -0.375 -0.9375 -0.625q-0.421875 -0.171875 -1.875 -0.515625q-1.4375 -0.34375 -2.015625 -0.65625q-0.75 -0.390625 -1.125 -0.96875q-0.359375 -0.59375 -0.359375 -1.3125q0 -0.796875 0.4375 -1.484375q0.453125 -0.6875 1.3125 -1.046875q0.875 -0.359375 1.9375 -0.359375q1.171875 0 2.0625 0.375q0.890625 0.375 1.359375 1.109375q0.484375 0.734375 0.515625 1.65625l-1.328125 0.09375q-0.109375 -1.0 -0.734375 -1.5q-0.609375 -0.515625 -1.8125 -0.515625q-1.265625 0 -1.84375 0.46875q-0.578125 0.46875 -0.578125 1.109375q0 0.5625 0.421875 0.9375q0.390625 0.359375 2.078125 0.75q1.703125 0.375 2.328125 0.65625q0.921875 0.421875 1.359375 1.078125q0.4375 0.640625 0.4375 1.484375q0 0.84375 -0.484375 1.59375q-0.484375 0.734375 -1.390625 1.140625q-0.890625 0.40625 -2.015625 0.40625q-1.421875 0 -2.390625 -0.40625q-0.953125 -0.421875 -1.5 -1.25q-0.546875 -0.828125 -0.578125 -1.890625zm9.603729 -0.421875q0 -2.109375 1.171875 -3.125q0.984375 -0.84375 2.390625 -0.84375q1.578125 0 2.5625 1.03125q1.0 1.015625 1.0 2.828125q0 1.46875 -0.4375 2.3125q-0.4375 0.828125 -1.28125 1.296875q-0.84375 0.46875 -1.84375 0.46875q-1.59375 0 -2.578125 -1.015625q-0.984375 -1.03125 -0.984375 -2.953125zm1.328125 0q0 1.453125 0.625 2.1875q0.640625 0.71875 1.609375 0.71875q0.96875 0 1.59375 -0.71875q0.640625 -0.734375 0.640625 -2.234375q0 -1.40625 -0.640625 -2.125q-0.640625 -0.734375 -1.59375 -0.734375q-0.96875 0 -1.609375 0.71875q-0.625 0.71875 -0.625 2.1875zm7.6198425 3.796875l0 -6.59375l-1.140625 0l0 -1.0l1.140625 0l0 -0.8125q0 -0.765625 0.125 -1.140625q0.1875 -0.5 0.65625 -0.8125q0.46875 -0.3125 1.3125 -0.3125q0.546875 0 1.203125 0.125l-0.1875 1.125q-0.40625 -0.0625 -0.765625 -0.0625q-0.578125 0 -0.828125 0.25q-0.234375 0.25 -0.234375 0.9375l0 0.703125l1.46875 0l0 1.0l-1.46875 0l0 6.59375l-1.28125 0zm6.571991 -1.15625l0.1875 1.140625q-0.546875 0.109375 -0.984375 0.109375q-0.6875 0 -1.078125 -0.21875q-0.390625 -0.21875 -0.546875 -0.578125q-0.15625 -0.359375 -0.15625 -1.515625l0 -4.375l-0.953125 0l0 -1.0l0.953125 0l0 -1.890625l1.28125 -0.765625l0 2.65625l1.296875 0l0 1.0l-1.296875 0l0 4.4375q0 0.546875 0.0625 0.71875q0.078125 0.15625 0.21875 0.25q0.15625 0.078125 0.453125 0.078125q0.203125 0 0.5625 -0.046875zm1.2594604 1.15625l0 -7.59375l1.15625 0l0 1.0625q0.34375 -0.5625 0.9375 -0.890625q0.609375 -0.34375 1.359375 -0.34375q0.84375 0 1.375 0.34375q0.546875 0.34375 0.765625 0.984375q0.90625 -1.328125 2.359375 -1.328125q1.125 0 1.734375 0.625q0.609375 0.625 0.609375 1.921875l0 5.21875l-1.28125 0l0 -4.78125q0 -0.78125 -0.125 -1.109375q-0.125 -0.34375 -0.453125 -0.546875q-0.328125 -0.21875 -0.78125 -0.21875q-0.796875 0 -1.328125 0.53125q-0.53125 0.53125 -0.53125 1.703125l0 4.421875l-1.28125 0l0 -4.9375q0 -0.859375 -0.3125 -1.28125q-0.3125 -0.4375 -1.03125 -0.4375q-0.546875 0 -1.015625 0.296875q-0.453125 0.28125 -0.671875 0.828125q-0.203125 0.546875 -0.203125 1.59375l0 3.9375l-1.28125 0zm17.161896 -0.9375q-0.71875 0.609375 -1.375 0.859375q-0.65625 0.25 -1.421875 0.25q-1.25 0 -1.921875 -0.609375q-0.671875 -0.609375 -0.671875 -1.5625q0 -0.5625 0.25 -1.015625q0.25 -0.46875 0.65625 -0.75q0.421875 -0.28125 0.9375 -0.421875q0.375 -0.09375 1.140625 -0.1875q1.5625 -0.1875 2.296875 -0.453125q0.015625 -0.265625 0.015625 -0.328125q0 -0.796875 -0.375 -1.109375q-0.484375 -0.4375 -1.453125 -0.4375q-0.921875 0 -1.359375 0.328125q-0.421875 0.3125 -0.625 1.109375l-1.265625 -0.171875q0.171875 -0.796875 0.5625 -1.296875q0.390625 -0.5 1.140625 -0.765625q0.75 -0.265625 1.71875 -0.265625q0.984375 0 1.59375 0.234375q0.609375 0.21875 0.890625 0.5625q0.28125 0.34375 0.40625 0.875q0.0625 0.328125 0.0625 1.1875l0 1.71875q0 1.796875 0.078125 2.28125q0.078125 0.46875 0.328125 0.90625l-1.34375 0q-0.203125 -0.40625 -0.265625 -0.9375zm-0.109375 -2.875q-0.703125 0.28125 -2.09375 0.484375q-0.796875 0.109375 -1.125 0.265625q-0.328125 0.140625 -0.515625 0.421875q-0.171875 0.265625 -0.171875 0.59375q0 0.515625 0.390625 0.859375q0.390625 0.34375 1.140625 0.34375q0.734375 0 1.3125 -0.3125q0.59375 -0.328125 0.859375 -0.890625q0.203125 -0.4375 0.203125 -1.296875l0 -0.46875zm2.447998 3.8125l2.78125 -3.953125l-2.578125 -3.640625l1.609375 0l1.171875 1.78125q0.328125 0.5 0.53125 0.84375q0.3125 -0.46875 0.578125 -0.828125l1.28125 -1.796875l1.53125 0l-2.625 3.578125l2.828125 4.015625l-1.578125 0l-1.5625 -2.359375l-0.40625 -0.640625l-2.0 3.0l-1.5625 0z" fill-rule="nonzero"/><path fill="#000000" fill-opacity="0.0" d="m792.0184 168.12862l90.834656 0l0 37.165344l-90.834656 0z" fill-rule="evenodd"/><path fill="#000000" d="m808.3934 189.97423l0 1.234375l-6.9375 0q-0.015625 -0.46875 0.15625 -0.890625q0.265625 -0.71875 0.84375 -1.40625q0.59375 -0.6875 1.6875 -1.578125q1.71875 -1.40625 2.3125 -2.21875q0.609375 -0.828125 0.609375 -1.5625q0 -0.765625 -0.5625 -1.28125q-0.546875 -0.53125 -1.421875 -0.53125q-0.921875 0 -1.484375 0.5625q-0.5625 0.5625 -0.5625 1.546875l-1.328125 -0.140625q0.140625 -1.484375 1.015625 -2.25q0.890625 -0.78125 2.390625 -0.78125q1.515625 0 2.390625 0.84375q0.875 0.828125 0.875 2.0625q0 0.640625 -0.265625 1.25q-0.25 0.59375 -0.84375 1.265625q-0.59375 0.671875 -1.984375 1.859375q-1.15625 0.96875 -1.484375 1.3125q-0.328125 0.34375 -0.546875 0.703125l5.140625 0zm8.151123 0l0 1.234375l-6.9375 0q-0.015625 -0.46875 0.15625 -0.890625q0.265625 -0.71875 0.84375 -1.40625q0.59375 -0.6875 1.6875 -1.578125q1.71875 -1.40625 2.3125 -2.21875q0.609375 -0.828125 0.609375 -1.5625q0 -0.765625 -0.5625 -1.28125q-0.546875 -0.53125 -1.421875 -0.53125q-0.921875 0 -1.484375 0.5625q-0.5625 0.5625 -0.5625 1.546875l-1.328125 -0.140625q0.140625 -1.484375 1.015625 -2.25q0.890625 -0.78125 2.390625 -0.78125q1.515625 0 2.390625 0.84375q0.875 0.828125 0.875 2.0625q0 0.640625 -0.265625 1.25q-0.25 0.59375 -0.84375 1.265625q-0.59375 0.671875 -1.984375 1.859375q-1.15625 0.96875 -1.484375 1.3125q-0.328125 0.34375 -0.546875 0.703125l5.140625 0zm5.510498 1.234375l0 -2.515625l-4.546875 0l0 -1.171875l4.78125 -6.796875l1.0625 0l0 6.796875l1.40625 0l0 1.171875l-1.40625 0l0 2.515625l-1.296875 0zm0 -3.6875l0 -4.734375l-3.28125 4.734375l3.28125 0z" fill-rule="nonzero"/><path fill="#000000" fill-opacity="0.0" d="m736.19946 185.81627l90.834656 0l0 37.16536l-90.834656 0z" fill-rule="evenodd"/><path fill="#000000" d="m750.6526 208.89627l-1.28125 0l0 -8.203125q-0.46875 0.4375 -1.21875 0.890625q-0.75 0.4375 -1.359375 0.65625l0 -1.25q1.078125 -0.5 1.890625 -1.21875q0.8125 -0.734375 1.140625 -1.40625l0.828125 0l0 10.53125zm7.062561 0l-1.28125 0l0 -8.203125q-0.46875 0.4375 -1.21875 0.890625q-0.75 0.4375 -1.359375 0.65625l0 -1.25q1.078125 -0.5 1.890625 -1.21875q0.8125 -0.734375 1.140625 -1.40625l0.828125 0l0 10.53125zm10.072998 -1.234375l0 1.234375l-6.9375 0q-0.015625 -0.46875 0.15625 -0.890625q0.265625 -0.71875 0.84375 -1.40625q0.59375 -0.6875 1.6875 -1.578125q1.71875 -1.40625 2.3125 -2.21875q0.609375 -0.828125 0.609375 -1.5625q0 -0.765625 -0.5625 -1.28125q-0.546875 -0.53125 -1.421875 -0.53125q-0.921875 0 -1.484375 0.5625q-0.5625 0.5625 -0.5625 1.546875l-1.328125 -0.140625q0.140625 -1.484375 1.015625 -2.25q0.890625 -0.78125 2.390625 -0.78125q1.515625 0 2.390625 0.84375q0.875 0.828125 0.875 2.0625q0 0.640625 -0.265625 1.25q-0.25 0.59375 -0.84375 1.265625q-0.59375 0.671875 -1.984375 1.859375q-1.15625 0.96875 -1.484375 1.3125q-0.328125 0.34375 -0.546875 0.703125l5.140625 0z" fill-rule="nonzero"/><path fill="#000000" fill-opacity="0.0" d="m676.7454 196.72441l90.834656 0l0 37.16536l-90.834656 0z" fill-rule="evenodd"/><path fill="#000000" d="m686.3548 217.05441l1.34375 -0.109375q0.15625 0.984375 0.703125 1.484375q0.546875 0.5 1.328125 0.5q0.921875 0 1.5625 -0.703125q0.65625 -0.703125 0.65625 -1.859375q0 -1.109375 -0.625 -1.734375q-0.625 -0.640625 -1.625 -0.640625q-0.625 0 -1.125 0.28125q-0.5 0.28125 -0.78125 0.734375l-1.203125 -0.15625l1.015625 -5.390625l5.21875 0l0 1.21875l-4.1875 0l-0.578125 2.828125q0.953125 -0.65625 1.984375 -0.65625q1.375 0 2.3125 0.953125q0.953125 0.953125 0.953125 2.4375q0 1.4375 -0.828125 2.46875q-1.015625 1.265625 -2.75 1.265625q-1.4375 0 -2.34375 -0.796875q-0.90625 -0.796875 -1.03125 -2.125zm14.838562 -5.171875l-1.28125 0.09375q-0.171875 -0.75 -0.484375 -1.09375q-0.53125 -0.546875 -1.296875 -0.546875q-0.609375 0 -1.078125 0.34375q-0.609375 0.4375 -0.96875 1.296875q-0.34375 0.84375 -0.359375 2.421875q0.46875 -0.71875 1.140625 -1.0625q0.671875 -0.34375 1.40625 -0.34375q1.296875 0 2.203125 0.953125q0.90625 0.953125 0.90625 2.453125q0 0.984375 -0.4375 1.84375q-0.421875 0.84375 -1.171875 1.296875q-0.734375 0.4375 -1.6875 0.4375q-1.609375 0 -2.625 -1.171875q-1.015625 -1.1875 -1.015625 -3.90625q0 -3.046875 1.125 -4.421875q0.984375 -1.203125 2.640625 -1.203125q1.234375 0 2.03125 0.703125q0.796875 0.6875 0.953125 1.90625zm-5.265625 4.515625q0 0.671875 0.28125 1.28125q0.28125 0.609375 0.78125 0.9375q0.515625 0.3125 1.078125 0.3125q0.8125 0 1.390625 -0.65625q0.59375 -0.671875 0.59375 -1.796875q0 -1.09375 -0.578125 -1.71875q-0.578125 -0.625 -1.453125 -0.625q-0.875 0 -1.484375 0.625q-0.609375 0.625 -0.609375 1.640625z" fill-rule="nonzero"/><path fill="#000000" fill-opacity="0.0" d="m608.2021 218.17848l90.834656 0l0 37.165344l-90.834656 0z" fill-rule="evenodd"/><path fill="#000000" d="m624.5771 240.02411l0 1.234375l-6.9375 0q-0.015625 -0.46875 0.15625 -0.890625q0.265625 -0.71875 0.84375 -1.40625q0.59375 -0.6875 1.6875 -1.578125q1.71875 -1.40625 2.3125 -2.21875q0.609375 -0.828125 0.609375 -1.5625q0 -0.765625 -0.5625 -1.28125q-0.546875 -0.53125 -1.421875 -0.53125q-0.921875 0 -1.484375 0.5625q-0.5625 0.5625 -0.5625 1.546875l-1.328125 -0.140625q0.140625 -1.484375 1.015625 -2.25q0.890625 -0.78125 2.390625 -0.78125q1.515625 0 2.390625 0.84375q0.875 0.828125 0.875 2.0625q0 0.640625 -0.265625 1.25q-0.25 0.59375 -0.84375 1.265625q-0.59375 0.671875 -1.984375 1.859375q-1.15625 0.96875 -1.484375 1.3125q-0.328125 0.34375 -0.546875 0.703125l5.140625 0zm3.369873 -4.453125q-0.796875 -0.296875 -1.1875 -0.84375q-0.390625 -0.546875 -0.390625 -1.296875q0 -1.140625 0.8125 -1.921875q0.828125 -0.78125 2.203125 -0.78125q1.375 0 2.203125 0.796875q0.84375 0.796875 0.84375 1.9375q0 0.734375 -0.390625 1.28125q-0.375 0.53125 -1.15625 0.828125q0.96875 0.3125 1.46875 1.015625q0.5 0.703125 0.5 1.671875q0 1.34375 -0.953125 2.265625q-0.9375 0.90625 -2.5 0.90625q-1.546875 0 -2.5 -0.90625q-0.953125 -0.921875 -0.953125 -2.296875q0 -1.03125 0.515625 -1.71875q0.515625 -0.6875 1.484375 -0.9375zm-0.265625 -2.1875q0 0.75 0.484375 1.21875q0.484375 0.46875 1.25 0.46875q0.734375 0 1.203125 -0.46875q0.484375 -0.46875 0.484375 -1.140625q0 -0.71875 -0.5 -1.1875q-0.484375 -0.484375 -1.203125 -0.484375q-0.734375 0 -1.234375 0.46875q-0.484375 0.46875 -0.484375 1.125zm-0.40625 4.84375q0 0.5625 0.25 1.078125q0.265625 0.5 0.78125 0.796875q0.515625 0.28125 1.109375 0.28125q0.921875 0 1.515625 -0.59375q0.609375 -0.59375 0.609375 -1.515625q0 -0.9375 -0.625 -1.53125q-0.609375 -0.609375 -1.546875 -0.609375q-0.90625 0 -1.5 0.609375q-0.59375 0.59375 -0.59375 1.484375z" fill-rule="nonzero"/><path fill="#000000" fill-opacity="0.0" d="m517.36743 266.83466l90.834656 0l0 37.165344l-90.834656 0z" fill-rule="evenodd"/><path fill="#000000" d="m531.82056 289.91464l-1.28125 0l0 -8.203125q-0.46875 0.4375 -1.21875 0.890625q-0.75 0.4375 -1.359375 0.65625l0 -1.25q1.078125 -0.5 1.890625 -1.21875q0.8125 -0.734375 1.140625 -1.40625l0.828125 0l0 10.53125zm7.432373 0l0 -2.515625l-4.546875 0l0 -1.171875l4.78125 -6.796875l1.0625 0l0 6.796875l1.40625 0l0 1.171875l-1.40625 0l0 2.515625l-1.296875 0zm0 -3.6875l0 -4.734375l-3.28125 4.734375l3.28125 0z" fill-rule="nonzero"/><path fill="#000000" fill-opacity="0.0" d="m426.5328 323.31628l90.834625 0l0 37.165344l-90.834625 0z" fill-rule="evenodd"/><path fill="#000000" d="m436.2203 337.27127l0 -1.234375l6.796875 0l0 1.0q-1.0 1.078125 -1.984375 2.84375q-0.984375 1.765625 -1.515625 3.625q-0.390625 1.328125 -0.5 2.890625l-1.328125 0q0.03125 -1.234375 0.484375 -2.984375q0.46875 -1.765625 1.34375 -3.390625q0.875 -1.625 1.84375 -2.75l-5.140625 0z" fill-rule="nonzero"/><path fill="#000000" fill-opacity="0.0" d="m301.82153 405.83597l90.834625 0l0 37.165344l-90.834625 0z" fill-rule="evenodd"/><path fill="#000000" d="m316.27466 428.91595l-1.28125 0l0 -8.203125q-0.46875 0.4375 -1.21875 0.890625q-0.75 0.4375 -1.359375 0.65625l0 -1.25q1.078125 -0.5 1.890625 -1.21875q0.8125 -0.734375 1.140625 -1.40625l0.828125 0l0 10.53125z" fill-rule="nonzero"/><path fill="#000000" fill-opacity="0.0" d="m397.54593 3.3937008l90.834656 0l0 37.165356l-90.834656 0z" fill-rule="evenodd"/><path fill="#000000" d="m407.1553 23.708076l1.296875 -0.171875q0.21875 1.09375 0.75 1.578125q0.53125 0.484375 1.296875 0.484375q0.90625 0 1.53125 -0.625q0.640625 -0.640625 0.640625 -1.5625q0 -0.890625 -0.59375 -1.46875q-0.578125 -0.578125 -1.46875 -0.578125q-0.359375 0 -0.90625 0.140625l0.140625 -1.125q0.125 0.015625 0.203125 0.015625q0.828125 0 1.484375 -0.421875q0.65625 -0.4375 0.65625 -1.34375q0 -0.703125 -0.484375 -1.15625q-0.46875 -0.46875 -1.234375 -0.46875q-0.75 0 -1.25 0.46875q-0.5 0.46875 -0.640625 1.421875l-1.28125 -0.234375q0.234375 -1.296875 1.0625 -2.0q0.84375 -0.71875095 2.09375 -0.71875095q0.859375 0 1.578125 0.37500095q0.71875 0.359375 1.09375 1.0q0.390625 0.640625 0.390625 1.34375q0 0.6875 -0.375 1.25q-0.359375 0.546875 -1.0625 0.875q0.921875 0.21875 1.4375 0.90625q0.515625 0.671875 0.515625 1.6875q0 1.375 -1.0 2.328125q-1.0 0.953125 -2.53125 0.953125q-1.390625 0 -2.296875 -0.8125q-0.90625 -0.828125 -1.046875 -2.140625z" fill-rule="nonzero"/><path fill="#000000" fill-opacity="0.0" d="m381.72964 59.681103l90.834656 0l0 37.165356l-90.834656 0z" fill-rule="evenodd"/><path fill="#000000" d="m398.02652 74.839226l-1.28125 0.09375q-0.171875 -0.75 -0.484375 -1.09375q-0.53125 -0.546875 -1.296875 -0.546875q-0.609375 0 -1.078125 0.34375q-0.609375 0.4375 -0.96875 1.296875q-0.34375 0.84375 -0.359375 2.421875q0.46875 -0.71875 1.140625 -1.0625q0.671875 -0.34375 1.40625 -0.34375q1.296875 0 2.203125 0.953125q0.90625 0.953125 0.90625 2.453125q0 0.984375 -0.4375 1.84375q-0.421875 0.84375 -1.171875 1.296875q-0.734375 0.4375 -1.6875 0.4375q-1.609375 0 -2.625 -1.171875q-1.015625 -1.1875 -1.015625 -3.90625q0 -3.046875 1.125 -4.421875q0.984375 -1.203125 2.640625 -1.203125q1.234375 0 2.03125 0.703125q0.796875 0.6875 0.953125 1.90625zm-5.265625 4.515625q0 0.671875 0.28125 1.28125q0.28125 0.609375 0.78125 0.9375q0.515625 0.3125 1.078125 0.3125q0.8125 0 1.390625 -0.65625q0.59375 -0.671875 0.59375 -1.796875q0 -1.09375 -0.578125 -1.71875q-0.578125 -0.625 -1.453125 -0.625q-0.875 0 -1.484375 0.625q-0.609375 0.625 -0.609375 1.640625zm10.854248 3.40625l0 -2.515625l-4.546875 0l0 -1.171875l4.78125 -6.796875l1.0625 0l0 6.796875l1.40625 0l0 1.171875l-1.40625 0l0 2.515625l-1.296875 0zm0 -3.6875l0 -4.734375l-3.28125 4.734375l3.28125 0z" fill-rule="nonzero"/><path fill="#000000" fill-opacity="0.0" d="m378.03412 109.919945l90.834656 0l0 37.16535l-90.834656 0z" fill-rule="evenodd"/><path fill="#000000" d="m394.331 125.07807l-1.28125 0.09375q-0.171875 -0.75 -0.484375 -1.09375q-0.53125 -0.546875 -1.296875 -0.546875q-0.609375 0 -1.078125 0.34375q-0.609375 0.4375 -0.96875 1.296875q-0.34375 0.84375 -0.359375 2.421875q0.46875 -0.71875 1.140625 -1.0625q0.671875 -0.34375 1.40625 -0.34375q1.296875 0 2.203125 0.953125q0.90625 0.9531326 0.90625 2.4531326q0 0.984375 -0.4375 1.84375q-0.421875 0.84375 -1.171875 1.296875q-0.734375 0.4375 -1.6875 0.4375q-1.609375 0 -2.625 -1.171875q-1.015625 -1.1875 -1.015625 -3.90625q0 -3.0468826 1.125 -4.4218826q0.984375 -1.203125 2.640625 -1.203125q1.234375 0 2.03125 0.703125q0.796875 0.6875 0.953125 1.90625zm-5.265625 4.5156326q0 0.671875 0.28125 1.28125q0.28125 0.609375 0.78125 0.9375q0.515625 0.3125 1.078125 0.3125q0.8125 0 1.390625 -0.65625q0.59375 -0.671875 0.59375 -1.796875q0 -1.09375 -0.578125 -1.7187576q-0.578125 -0.625 -1.453125 -0.625q-0.875 0 -1.484375 0.625q-0.609375 0.6250076 -0.609375 1.6406326zm10.854248 3.40625l0 -2.515625l-4.546875 0l0 -1.171875l4.78125 -6.7968826l1.0625 0l0 6.7968826l1.40625 0l0 1.171875l-1.40625 0l0 2.515625l-1.296875 0zm0 -3.6875l0 -4.7343826l-3.28125 4.7343826l3.28125 0z" fill-rule="nonzero"/><path fill="#000000" fill-opacity="0.0" d="m360.54855 161.22047l90.834656 0l0 37.16536l-90.834656 0z" fill-rule="evenodd"/><path fill="#000000" d="m375.00168 184.30048l-1.28125 0l0 -8.203125q-0.46875 0.4375 -1.21875 0.890625q-0.75 0.4375 -1.359375 0.65625l0 -1.25q1.078125 -0.5 1.890625 -1.21875q0.8125 -0.734375 1.140625 -1.40625l0.828125 0l0 10.53125zm10.072998 -1.234375l0 1.234375l-6.9375 0q-0.015625 -0.46875 0.15625 -0.890625q0.265625 -0.71875 0.84375 -1.40625q0.59375 -0.6875 1.6875 -1.578125q1.71875 -1.40625 2.3125 -2.21875q0.609375 -0.828125 0.609375 -1.5625q0 -0.765625 -0.5625 -1.28125q-0.546875 -0.53125 -1.421875 -0.53125q-0.921875 0 -1.484375 0.5625q-0.5625 0.5625 -0.5625 1.546875l-1.328125 -0.140625q0.140625 -1.484375 1.015625 -2.25q0.890625 -0.78125 2.390625 -0.78125q1.515625 0 2.390625 0.84375q0.875 0.828125 0.875 2.0625q0 0.640625 -0.265625 1.25q-0.25 0.59375 -0.84375 1.265625q-0.59375 0.671875 -1.984375 1.859375q-1.15625 0.96875 -1.484375 1.3125q-0.328125 0.34375 -0.546875 0.703125l5.140625 0zm3.3698425 -4.453125q-0.796875 -0.296875 -1.1875 -0.84375q-0.390625 -0.546875 -0.390625 -1.296875q0 -1.140625 0.8125 -1.921875q0.828125 -0.78125 2.203125 -0.78125q1.375 0 2.203125 0.796875q0.84375 0.796875 0.84375 1.9375q0 0.734375 -0.390625 1.28125q-0.375 0.53125 -1.15625 0.828125q0.96875 0.3125 1.46875 1.015625q0.5 0.703125 0.5 1.671875q0 1.34375 -0.953125 2.265625q-0.9375 0.90625 -2.5 0.90625q-1.546875 0 -2.5 -0.90625q-0.953125 -0.921875 -0.953125 -2.296875q0 -1.03125 0.515625 -1.71875q0.515625 -0.6875 1.484375 -0.9375zm-0.265625 -2.1875q0 0.75 0.484375 1.21875q0.484375 0.46875 1.25 0.46875q0.734375 0 1.203125 -0.46875q0.484375 -0.46875 0.484375 -1.140625q0 -0.71875 -0.5 -1.1875q-0.484375 -0.484375 -1.203125 -0.484375q-0.734375 0 -1.234375 0.46875q-0.484375 0.46875 -0.484375 1.125zm-0.40625 4.84375q0 0.5625 0.25 1.078125q0.265625 0.5 0.78125 0.796875q0.515625 0.28125 1.109375 0.28125q0.921875 0 1.515625 -0.59375q0.609375 -0.59375 0.609375 -1.515625q0 -0.9375 -0.625 -1.53125q-0.609375 -0.609375 -1.546875 -0.609375q-0.90625 0 -1.5 0.609375q-0.59375 0.59375 -0.59375 1.484375z" fill-rule="nonzero"/><path fill="#000000" fill-opacity="0.0" d="m335.69815 219.85957l90.834656 0l0 37.16536l-90.834656 0z" fill-rule="evenodd"/><path fill="#000000" d="m352.07315 241.7052l0 1.234375l-6.9375 0q-0.015625 -0.46875 0.15625 -0.890625q0.265625 -0.71875 0.84375 -1.40625q0.59375 -0.6875 1.6875 -1.578125q1.71875 -1.40625 2.3125 -2.21875q0.609375 -0.828125 0.609375 -1.5625q0 -0.765625 -0.5625 -1.28125q-0.546875 -0.53125 -1.421875 -0.53125q-0.921875 0 -1.484375 0.5625q-0.5625 0.5625 -0.5625 1.546875l-1.328125 -0.140625q0.140625 -1.484375 1.015625 -2.25q0.890625 -0.78125 2.390625 -0.78125q1.515625 0 2.390625 0.84375q0.875 0.828125 0.875 2.0625q0 0.640625 -0.265625 1.25q-0.25 0.59375 -0.84375 1.265625q-0.59375 0.671875 -1.984375 1.859375q-1.15625 0.96875 -1.484375 1.3125q-0.328125 0.34375 -0.546875 0.703125l5.140625 0zm1.385498 -1.515625l1.34375 -0.109375q0.15625 0.984375 0.703125 1.484375q0.546875 0.5 1.328125 0.5q0.921875 0 1.5625 -0.703125q0.65625 -0.703125 0.65625 -1.859375q0 -1.109375 -0.625 -1.734375q-0.625 -0.640625 -1.625 -0.640625q-0.625 0 -1.125 0.28125q-0.5 0.28125 -0.78125 0.734375l-1.203125 -0.15625l1.015625 -5.390625l5.21875 0l0 1.21875l-4.1875 0l-0.578125 2.828125q0.953125 -0.65625 1.984375 -0.65625q1.375 0 2.3125 0.953125q0.953125 0.953125 0.953125 2.4375q0 1.4375 -0.828125 2.46875q-1.015625 1.265625 -2.75 1.265625q-1.4375 0 -2.34375 -0.796875q-0.90625 -0.796875 -1.03125 -2.125zm14.838593 -5.171875l-1.28125 0.09375q-0.171875 -0.75 -0.484375 -1.09375q-0.53125 -0.546875 -1.296875 -0.546875q-0.609375 0 -1.078125 0.34375q-0.609375 0.4375 -0.96875 1.296875q-0.34375 0.84375 -0.359375 2.421875q0.46875 -0.71875 1.140625 -1.0625q0.671875 -0.34375 1.40625 -0.34375q1.296875 0 2.203125 0.953125q0.90625 0.953125 0.90625 2.453125q0 0.984375 -0.4375 1.84375q-0.421875 0.84375 -1.171875 1.296875q-0.734375 0.4375 -1.6875 0.4375q-1.609375 0 -2.625 -1.171875q-1.015625 -1.1875 -1.015625 -3.90625q0 -3.046875 1.125 -4.421875q0.984375 -1.203125 2.640625 -1.203125q1.234375 0 2.03125 0.703125q0.796875 0.6875 0.953125 1.90625zm-5.265625 4.515625q0 0.671875 0.28125 1.28125q0.28125 0.609375 0.78125 0.9375q0.515625 0.3125 1.078125 0.3125q0.8125 0 1.390625 -0.65625q0.59375 -0.671875 0.59375 -1.796875q0 -1.09375 -0.578125 -1.71875q-0.578125 -0.625 -1.453125 -0.625q-0.875 0 -1.484375 0.625q-0.609375 0.625 -0.609375 1.640625z" fill-rule="nonzero"/><path fill="#000000" fill-opacity="0.0" d="m301.82153 291.8924l90.834625 0l0 37.165344l-90.834625 0z" fill-rule="evenodd"/><path fill="#000000" d="m311.4309 312.22238l1.34375 -0.109375q0.15625 0.984375 0.703125 1.484375q0.546875 0.5 1.328125 0.5q0.921875 0 1.5625 -0.703125q0.65625 -0.703125 0.65625 -1.859375q0 -1.109375 -0.625 -1.734375q-0.625 -0.640625 -1.625 -0.640625q-0.625 0 -1.125 0.28125q-0.5 0.28125 -0.78125 0.734375l-1.203125 -0.15625l1.015625 -5.390625l5.21875 0l0 1.21875l-4.1875 0l-0.578125 2.828125q0.953125 -0.65625 1.984375 -0.65625q1.375 0 2.3125 0.953125q0.953125 0.953125 0.953125 2.4375q0 1.4375 -0.828125 2.46875q-1.015625 1.265625 -2.75 1.265625q-1.4375 0 -2.34375 -0.796875q-0.90625 -0.796875 -1.03125 -2.125zm12.994843 2.75l-1.28125 0l0 -8.203125q-0.46875 0.4375 -1.21875 0.890625q-0.75 0.4375 -1.359375 0.65625l0 -1.25q1.078125 -0.5 1.890625 -1.21875q0.8125 -0.734375 1.140625 -1.40625l0.828125 0l0 10.53125zm10.072998 -1.234375l0 1.234375l-6.9375 0q-0.015625 -0.46875 0.15625 -0.890625q0.265625 -0.71875 0.84375 -1.40625q0.59375 -0.6875 1.6875 -1.578125q1.71875 -1.40625 2.3125 -2.21875q0.609375 -0.828125 0.609375 -1.5625q0 -0.765625 -0.5625 -1.28125q-0.546875 -0.53125 -1.421875 -0.53125q-0.921875 0 -1.484375 0.5625q-0.5625 0.5625 -0.5625 1.546875l-1.328125 -0.140625q0.140625 -1.484375 1.015625 -2.25q0.890625 -0.78125 2.390625 -0.78125q1.515625 0 2.390625 0.84375q0.875 0.828125 0.875 2.0625q0 0.640625 -0.265625 1.25q-0.25 0.59375 -0.84375 1.265625q-0.59375 0.671875 -1.984375 1.859375q-1.15625 0.96875 -1.484375 1.3125q-0.328125 0.34375 -0.546875 0.703125l5.140625 0z" fill-rule="nonzero"/><path fill="#000000" fill-opacity="0.0" d="m251.45932 361.6391l90.834656 0l0 37.165375l-90.834656 0z" fill-rule="evenodd"/><path fill="#000000" d="m261.0687 381.96912l1.34375 -0.109375q0.15625 0.984375 0.703125 1.484375q0.546875 0.5 1.328125 0.5q0.921875 0 1.5625 -0.703125q0.65625 -0.703125 0.65625 -1.859375q0 -1.109375 -0.625 -1.734375q-0.625 -0.640625 -1.625 -0.640625q-0.625 0 -1.125 0.28125q-0.5 0.28125 -0.78125 0.734375l-1.203125 -0.15625l1.015625 -5.390625l5.21875 0l0 1.21875l-4.1875 0l-0.578125 2.828125q0.953125 -0.65625 1.984375 -0.65625q1.375 0 2.3125 0.953125q0.953125 0.953125 0.953125 2.4375q0 1.4375 -0.828125 2.46875q-1.015625 1.265625 -2.75 1.265625q-1.4375 0 -2.34375 -0.796875q-0.90625 -0.796875 -1.03125 -2.125zm12.994843 2.75l-1.28125 0l0 -8.203125q-0.46875 0.4375 -1.21875 0.890625q-0.75 0.4375 -1.359375 0.65625l0 -1.25q1.078125 -0.5 1.890625 -1.21875q0.8125 -0.734375 1.140625 -1.40625l0.828125 0l0 10.53125zm10.072998 -1.234375l0 1.234375l-6.9375 0q-0.015625 -0.46875 0.15625 -0.890625q0.265625 -0.71875 0.84375 -1.40625q0.59375 -0.6875 1.6875 -1.578125q1.71875 -1.40625 2.3125 -2.21875q0.609375 -0.828125 0.609375 -1.5625q0 -0.765625 -0.5625 -1.28125q-0.546875 -0.53125 -1.421875 -0.53125q-0.921875 0 -1.484375 0.5625q-0.5625 0.5625 -0.5625 1.546875l-1.328125 -0.140625q0.140625 -1.484375 1.015625 -2.25q0.890625 -0.78125 2.390625 -0.78125q1.515625 0 2.390625 0.84375q0.875 0.828125 0.875 2.0625q0 0.640625 -0.265625 1.25q-0.25 0.59375 -0.84375 1.265625q-0.59375 0.671875 -1.984375 1.859375q-1.15625 0.96875 -1.484375 1.3125q-0.328125 0.34375 -0.546875 0.703125l5.140625 0z" fill-rule="nonzero"/></g></svg>
